<?xml version="1.0" encoding="UTF-8" standalone="no"?>
<svg
   xmlns:dc="http://purl.org/dc/elements/1.1/"
   xmlns:cc="http://creativecommons.org/ns#"
   xmlns:rdf="http://www.w3.org/1999/02/22-rdf-syntax-ns#"
   xmlns:svg="http://www.w3.org/2000/svg"
   xmlns="http://www.w3.org/2000/svg"
   xmlns:sodipodi="http://sodipodi.sourceforge.net/DTD/sodipodi-0.dtd"
   xmlns:inkscape="http://www.inkscape.org/namespaces/inkscape"
   width="24"
   height="24"
   viewBox="0 0 6.3499999 6.3500002"
   version="1.1"
   id="svg8"
   inkscape:version="1.0.2-2 (e86c870879, 2021-01-15)"
   sodipodi:docname="camera_filled.svg">
  <defs
     id="defs2" />
  <sodipodi:namedview
     id="base"
     pagecolor="#ffffff"
     bordercolor="#666666"
     borderopacity="1.0"
     inkscape:pageopacity="0.0"
     inkscape:pageshadow="2"
     inkscape:zoom="16.000001"
     inkscape:cx="11.054098"
     inkscape:cy="9.1312753"
     inkscape:document-units="mm"
     inkscape:current-layer="layer1"
     inkscape:document-rotation="0"
     showgrid="false"
     units="px"
     showguides="true"
     inkscape:guide-bbox="true"
     inkscape:window-width="1920"
     inkscape:window-height="1057"
     inkscape:window-x="-8"
     inkscape:window-y="-8"
     inkscape:window-maximized="1" />
  <metadata
     id="metadata5">
    <rdf:RDF>
      <cc:Work
         rdf:about="">
        <dc:format>image/svg+xml</dc:format>
        <dc:type
           rdf:resource="http://purl.org/dc/dcmitype/StillImage" />
        <dc:title></dc:title>
      </cc:Work>
    </rdf:RDF>
  </metadata>
  <g
     inkscape:label="Layer 1"
     inkscape:groupmode="layer"
     id="layer1">
    <g
       id="g972">
      <path
         id="rect878"
         style="fill:#000000;fill-opacity:1;stroke:#000000;stroke-width:1.13094;stroke-linecap:butt;stroke-linejoin:round;stroke-miterlimit:4;stroke-dasharray:none;stroke-opacity:1"
         d="M 2.7519531 6.6191406 C 2.6484931 6.6191406 2.5664062 6.7031806 2.5664062 6.8066406 L 2.5664062 18.302734 C 2.5664062 18.406194 2.6484931 18.488281 2.7519531 18.488281 L 21.248047 18.488281 C 21.351507 18.488281 21.433594 18.406194 21.433594 18.302734 L 21.433594 6.8066406 C 21.433594 6.7031806 21.351507 6.6191406 21.248047 6.6191406 L 2.7519531 6.6191406 z M 14.224609 8.0078125 A 4.6280313 4.5770077 0 0 1 14.238281 8.0078125 A 4.6280313 4.5770077 0 0 1 18.865234 12.585938 A 4.6280313 4.5770077 0 0 1 14.238281 17.162109 A 4.6280313 4.5770077 0 0 1 9.609375 12.585938 A 4.6280313 4.5770077 0 0 1 14.224609 8.0078125 z "
         transform="scale(0.26458333)" />
      <rect
         style="fill:none;fill-opacity:1;stroke:#000000;stroke-width:0.214469;stroke-linecap:butt;stroke-linejoin:round;stroke-miterlimit:4;stroke-dasharray:none;stroke-opacity:1"
         id="rect900"
         width="0.65865588"
         height="0.18240555"
         x="1.2511274"
         y="1.4158036"
         ry="0.048367575" />
    </g>
  </g>
</svg>
